<svg width="139" height="40" viewBox="0 0 139 40" fill="none" xmlns="http://www.w3.org/2000/svg">
<path fill-rule="evenodd" clip-rule="evenodd" d="M4.22811 0H10.2499C10.3492 0 10.4395 0.0376203 10.5051 0.0985858L40.9928 28.3554C41.0927 28.4559 41.1735 28.5643 41.1735 28.6557V37.7233C41.1735 37.8148 41.0927 37.89 40.9928 37.89H37.6943L3.76489 6.55573H3.76552C3.616 6.41434 3.50592 6.28658 3.50592 6.13546V0.667382C3.50592 0.300291 3.83107 0 4.22811 0Z" fill="#373435"/>
<path fill-rule="evenodd" clip-rule="evenodd" d="M0.722187 12.5089H6.74401C6.84327 12.5089 6.93426 12.5471 6.99916 12.6074L24.1605 28.5401C24.2597 28.6407 24.3405 28.749 24.3405 28.8404V37.908C24.3405 37.9995 24.2585 38.0747 24.1605 38.0747H20.86L0.259603 19.0646C0.110077 18.9238 0 18.7954 0 18.6449V13.1762C0 12.8091 0.325145 12.5089 0.722187 12.5089Z" fill="#6A8998"/>
<path fill-rule="evenodd" clip-rule="evenodd" d="M21.2412 0H27.263C27.3629 0 27.4539 0.0376202 27.5194 0.0985857L40.9928 12.6224C41.0927 12.7223 41.1735 12.8313 41.1735 12.9227V21.9897C41.1735 22.0811 41.0927 22.157 40.9928 22.157H37.6943L20.7792 6.55572C20.6291 6.41433 20.5203 6.28657 20.5203 6.13545V0.667381C20.5203 0.30029 20.8448 0 21.2412 0Z" fill="#946A65"/>
<path fill-rule="evenodd" clip-rule="evenodd" d="M59.2113 9.55411V11.9545H55.188V23.5554H52.8338V11.9545H48.7914V9.55411H52.8338H55.188H59.2113Z" fill="#373435"/>
<path fill-rule="evenodd" clip-rule="evenodd" d="M65.5888 9.55411L71.7894 23.5554H69.199L68.1396 21.155L67.0796 18.7547L64.2933 12.4746L61.507 18.7547H65.0784L66.1379 21.155H60.4476L59.3875 23.5554H56.7972L62.9984 9.55411H65.5888Z" fill="#373435"/>
<path fill-rule="evenodd" clip-rule="evenodd" d="M81.7187 19.555C81.7187 20.2153 81.6207 20.7951 81.405 21.3152C81.1893 21.8555 80.8947 22.2952 80.5219 22.6552C80.1293 23.0352 79.6584 23.3154 79.1093 23.5152C78.5596 23.7156 77.9513 23.8155 77.2647 23.8155C76.1856 23.8155 75.2044 23.6352 74.3601 23.2752C73.5163 22.9354 72.8101 22.5352 72.261 22.0754L73.8892 20.415C74.3212 20.8152 74.8118 21.1155 75.3412 21.3353C75.6753 21.4754 75.9692 21.5552 76.2638 21.5954C76.5584 21.635 76.7939 21.6551 76.9701 21.6551C77.3035 21.6551 77.6179 21.6155 77.9125 21.515C78.1867 21.4352 78.4221 21.3152 78.6385 21.1751C79.0896 20.8353 79.3053 20.3949 79.3053 19.8553C79.3053 19.5148 79.1876 19.2152 78.9522 18.9551C78.7753 18.7352 78.5398 18.575 78.2459 18.4349C78.0104 18.2948 77.7553 18.195 77.5001 18.1152C77.245 18.0348 77.0096 17.955 76.7939 17.8947C76.7347 17.8746 76.6762 17.8551 76.617 17.835C76.5584 17.835 76.519 17.8149 76.4795 17.7948C76.4598 17.7948 76.421 17.7747 76.3618 17.7546C76.087 17.6748 75.695 17.5347 75.1847 17.335C74.6547 17.1346 74.1444 16.855 73.6341 16.5145C72.4372 15.6947 71.8486 14.6946 71.8486 13.5143C71.8486 12.7347 71.9861 12.0543 72.261 11.5141C72.5161 10.9745 72.8692 10.5341 73.3006 10.1942C73.7327 9.85438 74.2233 9.61441 74.7527 9.47432C75.2827 9.33423 75.793 9.25446 76.3033 9.25446C77.245 9.25446 78.0302 9.37444 78.6773 9.59431C79.325 9.81417 79.8353 10.0541 80.2082 10.274C80.4042 10.394 80.581 10.514 80.7185 10.6145C80.8553 10.7345 80.9736 10.8344 81.0716 10.9343L79.4033 12.6542C79.0501 12.2943 78.697 12.0141 78.3241 11.8345C77.775 11.5744 77.2055 11.4343 76.5973 11.4343C76.3421 11.4343 76.0679 11.4745 75.8127 11.5342C75.5576 11.5945 75.3221 11.6944 75.1255 11.7942C74.5567 12.1542 74.2621 12.6341 74.2621 13.2146C74.2621 13.5746 74.3798 13.8749 74.6152 14.1343C74.7921 14.3347 75.0275 14.5143 75.3221 14.6745C75.5773 14.8146 75.8318 14.9145 76.1067 14.9949C76.3816 15.0747 76.6367 15.1545 76.8721 15.2148L77.1076 15.2745C77.1667 15.2946 77.3035 15.3348 77.4804 15.3945C77.6573 15.4548 77.873 15.5345 78.1282 15.6344C78.3833 15.7349 78.6576 15.875 78.9522 16.0145C79.2468 16.1546 79.521 16.3349 79.8156 16.5346C81.0913 17.3946 81.7187 18.3947 81.7187 19.555ZM90.9614 9.5541H93.3157V23.5554H90.9614V17.7546H85.2508V23.5554H82.8959V9.5541H85.2508V15.3549H90.9614V9.5541ZM105.6 23.5956H102.264L97.0443 18.2747V23.5554H94.6894V9.5742H97.0443V14.8749L102.225 9.59431H105.561L98.7127 16.5748L105.6 23.5956ZM115.726 11.9544H108.838V15.3549H113.959L114.549 17.7546H108.838V21.155H115.726V23.5554H106.483V9.5541H115.726V11.9544ZM125.066 9.53399H127.421V23.5353H124.87L119.356 13.9546V23.5353H117.001V9.53399H119.552L125.066 19.1153V9.53399ZM138.822 9.5541V11.9544H134.799V23.5554H132.445V11.9544H128.403V9.5541H132.445H134.799H138.822Z" fill="#373435"/>
<path fill-rule="evenodd" clip-rule="evenodd" d="M60.3693 25.9786H62.9399V39.9799H60.585V30.0594L56.0521 37.1995L51.5389 30.0594V39.9799H49.184V25.9786H51.7546L56.0521 32.7795L60.3693 25.9786ZM73.5564 28.3991H66.6686V31.7995H71.79L72.3792 34.1992H66.6686V37.5996H73.5564V40H64.3137V25.9987H73.5564V28.3991ZM84.8594 25.9987V28.3991H80.8361V40H78.4819V28.3991H74.4395V25.9987H78.4819H80.8361H84.8594Z" fill="#373435"/>
<path fill-rule="evenodd" clip-rule="evenodd" d="M91.2376 25.9986L97.4383 39.9999H94.8479L93.7885 37.5995L92.7285 35.1992L89.9422 28.9191L87.1558 35.1992H90.7273L91.7868 37.5995H86.0964L85.0364 39.9999H82.446L88.6473 25.9986H91.2376ZM100.676 37.5995H106.072V39.9999H100.676H98.3208V37.5995V26.0187H100.676V37.5995Z" fill="#373435"/>
</svg>
