<svg width="25" height="21" viewBox="0 0 25 21" fill="none" xmlns="http://www.w3.org/2000/svg">
<path d="M17.6667 19.875V17.7917C17.6667 16.6866 17.2277 15.6268 16.4463 14.8454C15.6649 14.064 14.6051 13.625 13.5 13.625H5.16667C4.0616 13.625 3.00179 14.064 2.22039 14.8454C1.43899 15.6268 1 16.6866 1 17.7917V19.875M23.9167 19.875V17.7917C23.916 16.8685 23.6087 15.9716 23.0431 15.242C22.4775 14.5124 21.6856 13.9912 20.7917 13.7604M16.625 1.26042C17.5213 1.4899 18.3157 2.01115 18.883 2.74199C19.4502 3.47283 19.7582 4.3717 19.7582 5.29688C19.7582 6.22205 19.4502 7.12092 18.883 7.85176C18.3157 8.5826 17.5213 9.10385 16.625 9.33333M13.5 5.29167C13.5 7.59285 11.6345 9.45833 9.33333 9.45833C7.03215 9.45833 5.16667 7.59285 5.16667 5.29167C5.16667 2.99048 7.03215 1.125 9.33333 1.125C11.6345 1.125 13.5 2.99048 13.5 5.29167Z" stroke="white" stroke-width="2" stroke-linecap="round" stroke-linejoin="round"/>
</svg>
