<svg version="1.0" xmlns="http://www.w3.org/2000/svg"
 width="512.000000pt" height="512.000000pt" viewBox="0 0 512.000000 512.000000"
 preserveAspectRatio="xMidYMid meet">

<g transform="translate(0.000000,512.000000) scale(0.100000,-0.100000)"
fill="#fff" stroke="none">
<path d="M913 4894 c-68 -34 -63 157 -63 -2334 0 -2030 2 -2255 16 -2285 32
-69 -52 -65 1318 -65 1038 0 1242 2 1269 14 41 18 793 772 807 809 7 19 10
623 10 1904 0 1687 -2 1878 -16 1908 -33 70 93 65 -1696 65 -1444 0 -1616 -2
-1645 -16z m3137 -1964 l0 -1760 -341 0 -341 0 -29 -29 -29 -29 0 -341 0 -341
-1120 0 -1120 0 0 2130 0 2130 1490 0 1490 0 0 -1760z m-150 -1973 c0 -1 -85
-88 -190 -192 l-190 -190 0 193 0 192 190 0 c105 0 190 -1 190 -3z"/>
<path d="M1345 4471 c-11 -5 -29 -19 -40 -31 -19 -21 -20 -39 -23 -374 -3
-311 -1 -355 13 -382 9 -18 28 -37 41 -43 16 -7 98 -11 220 -11 l196 0 29 29
c33 33 39 83 15 130 -22 42 -55 51 -186 51 l-120 0 0 280 c0 195 -4 287 -12
305 -20 45 -82 66 -133 46z"/>
<path d="M2098 4464 c-68 -21 -142 -95 -162 -164 -23 -76 -23 -426 0 -492 46
-136 194 -208 338 -166 55 16 148 109 164 164 8 27 12 117 12 255 0 204 -1
216 -24 265 -57 122 -193 180 -328 138z m120 -210 c21 -15 22 -20 22 -196 0
-197 -6 -218 -56 -218 -47 0 -54 30 -54 217 0 160 2 175 20 193 24 24 38 25
68 4z"/>
<path d="M2828 4464 c-15 -8 -34 -27 -42 -42 -22 -44 -226 -667 -226 -691 0
-32 29 -77 57 -90 61 -28 124 -4 149 55 l14 34 100 0 100 0 14 -34 c25 -60 88
-83 151 -54 29 13 55 55 55 89 0 24 -204 647 -226 691 -27 52 -93 71 -146 42z
m69 -479 c11 -34 11 -35 -17 -35 -28 0 -28 1 -17 35 6 19 13 35 17 35 4 0 11
-16 17 -35z"/>
<path d="M3358 4463 c-14 -9 -31 -27 -37 -40 -7 -16 -11 -147 -11 -379 l0
-356 29 -29 c48 -47 130 -37 164 21 13 21 17 54 18 132 l0 103 64 -126 c39
-77 73 -132 89 -142 51 -34 123 -16 151 37 14 27 16 71 13 383 l-3 351 -24 26
c-33 35 -85 44 -127 21 -18 -10 -36 -25 -41 -34 -4 -9 -10 -65 -13 -126 l-5
-110 -61 120 c-34 66 -71 128 -82 138 -29 27 -91 32 -124 10z"/>
<path d="M1438 3183 c-56 -35 -66 -117 -19 -164 l29 -29 1112 0 1112 0 29 29
c32 32 38 79 17 126 -26 58 28 55 -1160 55 -1000 -1 -1095 -2 -1120 -17z"/>
<path d="M1419 2741 c-47 -48 -37 -130 21 -164 26 -16 119 -17 1120 -17 1001
0 1094 1 1120 17 58 34 68 116 21 164 l-29 29 -1112 0 -1112 0 -29 -29z"/>
<path d="M1454 2336 c-41 -18 -64 -52 -64 -96 0 -45 23 -78 66 -96 50 -21
2158 -21 2208 0 43 18 66 51 66 96 0 45 -23 78 -66 96 -49 21 -2163 20 -2210
0z"/>
<path d="M1438 1903 c-56 -35 -66 -117 -19 -164 l29 -29 792 0 792 0 29 29
c48 49 34 142 -26 169 -19 9 -220 12 -798 12 -701 -1 -774 -2 -799 -17z"/>
<path d="M1454 1056 c-17 -8 -39 -24 -48 -37 -21 -30 -21 -88 0 -118 33 -47
64 -51 354 -51 290 0 321 4 354 51 9 13 16 39 16 59 0 45 -23 78 -66 96 -47
20 -565 20 -610 0z"/>
</g>
</svg>
